<svg width="219" height="343" viewBox="0 0 219 343" fill="none" xmlns="http://www.w3.org/2000/svg">
<path d="M201.5 209.5V175C201.5 175 155.994 174.255 94 175C32.0057 175.745 46.8689 277.854 94 277C141.131 276.146 155 277 175 277C195 277 194 309.5 175 309.5H1V342C1 342 116.8 342.947 179 342C241.2 341.053 221.965 241.087 179 242C136.035 242.913 120 242 100 242C80 242 73.5 209.5 100 209.5H201.5Z" fill="white"/>
<path d="M0 304V0.5H34.5L100.5 124L167 0.5H201.5V167.5H167V70L118 167.5H84L34.5 70V304H0Z" fill="#5D77CD"/>
</svg>
